<svg width="437" height="86" viewBox="0 0 437 86" fill="none" xmlns="http://www.w3.org/2000/svg">
<rect y="20" width="269" height="66" fill="#0D0D0D"/>
<path d="M21.0008 73.6931C17.3043 73.6931 13.9312 72.9538 10.8816 71.4752C7.83198 69.9966 5.40614 67.7787 3.6041 64.8215C1.80205 61.8643 0.924127 58.1909 0.970333 53.8013C1.01654 49.5041 1.91756 45.8307 3.67341 42.781C5.47545 39.6852 7.90129 37.3287 10.9509 35.7115C14.0005 34.0943 17.4198 33.2856 21.2087 33.2856C25.1363 33.2856 28.44 34.0018 31.12 35.4342C33.7999 36.8204 35.8792 38.6687 37.3578 40.979C38.8826 43.2431 39.853 45.692 40.2688 48.3258H30.2883C30.0572 46.57 29.3872 45.2762 28.2783 44.4445C27.2155 43.6128 26.0142 43.0814 24.6742 42.8504C23.3804 42.5731 22.2253 42.4345 21.2087 42.4345C17.6046 42.4345 14.9247 43.3817 13.1688 45.2762C11.413 47.1244 10.535 49.712 10.535 53.0389C10.535 56.6892 11.3899 59.5308 13.0995 61.5639C14.8091 63.597 17.4891 64.6135 21.1394 64.6135C22.2022 64.6135 23.4035 64.4749 24.7435 64.1977C26.0835 63.8742 27.2849 63.2505 28.3476 62.3263C29.4565 61.4022 30.1265 60.016 30.3576 58.1678H40.4075C39.9454 60.8939 38.952 63.4584 37.4271 65.8611C35.9023 68.2176 33.7768 70.1121 31.0507 71.5445C28.3707 72.9769 25.0207 73.6931 21.0008 73.6931Z" fill="white"/>
<path d="M53 54.5H52" stroke="black"/>
<path d="M65.175 61.718H46.731L42.809 72H41.59L55.423 35.801H56.483L70.263 72H69.044L65.175 61.718ZM64.804 60.764L55.953 37.497L47.102 60.764H64.804ZM101.617 72H100.557L77.3961 36.649V72H76.3361V34.741H77.3961L100.557 70.039V34.741H101.617V72ZM131.321 61.718H112.877L108.955 72H107.736L121.569 35.801H122.629L136.409 72H135.19L131.321 61.718ZM130.95 60.764L122.099 37.497L113.248 60.764H130.95ZM143.543 71.046H157.853V72H142.483V34.688H143.543V71.046ZM164.453 34.688V72H163.393V34.688H164.453ZM183.714 72.371C181.347 72.371 179.28 71.947 177.513 71.099C175.782 70.251 174.439 69.138 173.485 67.76C172.531 66.3467 171.966 64.8273 171.789 63.202H172.849C173.026 64.4387 173.468 65.6753 174.174 66.912C174.916 68.1487 176.065 69.2087 177.619 70.092C179.209 70.9753 181.241 71.417 183.714 71.417C185.693 71.417 187.442 71.046 188.961 70.304C190.481 69.5267 191.647 68.502 192.459 67.23C193.272 65.958 193.678 64.5447 193.678 62.99C193.678 60.976 193.219 59.386 192.3 58.22C191.382 57.0187 190.233 56.1353 188.855 55.57C187.513 55.0047 185.693 54.4217 183.396 53.821C180.994 53.185 179.068 52.549 177.619 51.913C176.171 51.277 174.934 50.3053 173.909 48.998C172.92 47.6553 172.425 45.8533 172.425 43.592C172.425 41.9667 172.867 40.4473 173.75 39.034C174.669 37.5853 175.959 36.437 177.619 35.589C179.315 34.741 181.241 34.317 183.396 34.317C185.587 34.317 187.477 34.7057 189.067 35.483C190.657 36.2603 191.894 37.2497 192.777 38.451C193.696 39.617 194.297 40.8537 194.579 42.161H193.519C193.272 41.1363 192.76 40.094 191.982 39.034C191.205 37.974 190.092 37.0907 188.643 36.384C187.195 35.642 185.446 35.271 183.396 35.271C181.594 35.271 179.934 35.6243 178.414 36.331C176.93 37.0023 175.729 37.974 174.81 39.246C173.927 40.4827 173.485 41.9313 173.485 43.592C173.485 45.6413 173.945 47.2843 174.863 48.521C175.817 49.7223 176.983 50.6233 178.361 51.224C179.739 51.7893 181.577 52.3723 183.873 52.973C186.276 53.609 188.184 54.245 189.597 54.881C191.046 55.4817 192.265 56.4357 193.254 57.743C194.244 59.015 194.738 60.764 194.738 62.99C194.738 64.5447 194.314 66.0463 193.466 67.495C192.654 68.9437 191.417 70.1273 189.756 71.046C188.096 71.9293 186.082 72.371 183.714 72.371ZM223.26 34.688L211.706 56.365V72H210.646V56.365L198.986 34.688H200.258L211.123 55.199L221.988 34.688H223.26ZM239.561 72.371C237.194 72.371 235.127 71.947 233.36 71.099C231.629 70.251 230.286 69.138 229.332 67.76C228.378 66.3467 227.813 64.8273 227.636 63.202H228.696C228.873 64.4387 229.314 65.6753 230.021 66.912C230.763 68.1487 231.911 69.2087 233.466 70.092C235.056 70.9753 237.088 71.417 239.561 71.417C241.54 71.417 243.289 71.046 244.808 70.304C246.327 69.5267 247.493 68.502 248.306 67.23C249.119 65.958 249.525 64.5447 249.525 62.99C249.525 60.976 249.066 59.386 248.147 58.22C247.228 57.0187 246.08 56.1353 244.702 55.57C243.359 55.0047 241.54 54.4217 239.243 53.821C236.84 53.185 234.915 52.549 233.466 51.913C232.017 51.277 230.781 50.3053 229.756 48.998C228.767 47.6553 228.272 45.8533 228.272 43.592C228.272 41.9667 228.714 40.4473 229.597 39.034C230.516 37.5853 231.805 36.437 233.466 35.589C235.162 34.741 237.088 34.317 239.243 34.317C241.434 34.317 243.324 34.7057 244.914 35.483C246.504 36.2603 247.741 37.2497 248.624 38.451C249.543 39.617 250.143 40.8537 250.426 42.161H249.366C249.119 41.1363 248.606 40.094 247.829 39.034C247.052 37.974 245.939 37.0907 244.49 36.384C243.041 35.642 241.292 35.271 239.243 35.271C237.441 35.271 235.78 35.6243 234.261 36.331C232.777 37.0023 231.576 37.974 230.657 39.246C229.774 40.4827 229.332 41.9313 229.332 43.592C229.332 45.6413 229.791 47.2843 230.71 48.521C231.664 49.7223 232.83 50.6233 234.208 51.224C235.586 51.7893 237.423 52.3723 239.72 52.973C242.123 53.609 244.031 54.245 245.444 54.881C246.893 55.4817 248.112 56.4357 249.101 57.743C250.09 59.015 250.585 60.764 250.585 62.99C250.585 64.5447 250.161 66.0463 249.313 67.495C248.5 68.9437 247.264 70.1273 245.603 71.046C243.942 71.9293 241.928 72.371 239.561 72.371Z" fill="white"/>
<rect x="31" y="49" width="9" height="1" fill="#EC7E39"/>
<rect x="31" y="51" width="9" height="1" fill="#EC7E39"/>
<rect x="31" y="53" width="9" height="1" fill="#EC7E39"/>
<rect x="31" y="55" width="9" height="1" fill="#EC7E39"/>
<rect x="31" y="57" width="9" height="1" fill="#EC7E39"/>
</svg>
